<?xml version="1.0" standalone="no"?>
<!DOCTYPE svg PUBLIC "-//W3C//DTD SVG 20010904//EN"
 "http://www.w3.org/TR/2001/REC-SVG-20010904/DTD/svg10.dtd">
<svg version="1.0" xmlns="http://www.w3.org/2000/svg"
 width="508.000000pt" height="508.000000pt" viewBox="0 0 508.000000 508.000000"
 preserveAspectRatio="xMidYMid meet">
<metadata>
Created by potrace 1.11, written by Peter Selinger 2001-2013
</metadata>
<g transform="translate(0.000000,508.000000) scale(0.100000,-0.100000)"
fill="#000000" stroke="none">
<path d="M0 2535 l0 -2535 2540 0 2540 0 0 2535 0 2535 -2540 0 -2540 0 0
-2535z m3300 1175 c47 -13 106 -63 130 -111 25 -48 27 -146 4 -192 -23 -46
-63 -86 -108 -109 -31 -16 -53 -19 -107 -16 -89 5 -142 39 -182 118 -90 174
71 364 263 310z m-2362 -788 c79 -427 156 -866 172 -975 16 -109 30 -201 33
-203 2 -3 12 46 21 108 9 62 77 501 151 976 74 474 135 864 135 867 0 3 107 5
238 5 l238 0 142 -867 c79 -478 150 -919 159 -981 9 -62 20 -109 23 -105 4 5
17 76 29 158 19 124 96 566 117 668 l6 27 204 0 c112 0 204 -1 204 -2 0 -2
-81 -358 -179 -793 l-178 -790 -214 -3 -214 -2 -138 837 c-75 461 -151 930
-167 1042 -17 113 -32 207 -35 209 -3 3 -5 0 -5 -7 0 -36 -86 -581 -201 -1283
l-132 -798 -207 0 c-207 0 -208 0 -213 23 -3 12 -139 609 -302 1327 -163 718
-298 1313 -301 1323 -5 16 11 17 233 17 l238 0 143 -778z m3832 543 l0 -235
-540 0 -540 0 0 235 0 235 540 0 540 0 0 -235z m-1310 -1655 l0 -800 -220 0
-220 0 0 800 0 800 220 0 220 0 0 -800z m1170 560 l0 -230 -470 0 -470 0 0
230 0 230 470 0 470 0 0 -230z m-127 -971 c128 -35 192 -205 123 -323 -41 -70
-93 -100 -180 -104 -90 -4 -146 22 -193 91 -60 90 -53 192 21 273 61 66 139
88 229 63z"/>
</g>
</svg>
